<svg width="41" height="41" viewBox="0 0 41 41" fill="none" xmlns="http://www.w3.org/2000/svg">
<rect width="41" height="41" rx="20.5" fill="#EEEDFD"/>
<path d="M12.611 25V20.554H11.467V19.267H12.611V17.382C12.611 16.8967 12.6934 16.498 12.858 16.186C13.0314 15.874 13.261 15.64 13.547 15.484C13.833 15.328 14.158 15.25 14.522 15.25H15.354V16.55H14.886C14.6694 16.55 14.5047 16.628 14.392 16.784C14.2794 16.9313 14.223 17.161 14.223 17.473V19.267H15.575V20.554H14.223V25H12.611ZM18.8762 25.13C18.3389 25.13 17.8536 24.9913 17.4202 24.714C16.9956 24.4367 16.6619 24.0683 16.4192 23.609C16.1766 23.1497 16.0552 22.66 16.0552 22.14C16.0552 21.6113 16.1766 21.1217 16.4192 20.671C16.6619 20.2203 16.9956 19.852 17.4202 19.566C17.8536 19.28 18.3389 19.137 18.8762 19.137C19.2749 19.137 19.6519 19.2107 20.0072 19.358C20.3626 19.5053 20.6616 19.7393 20.9042 20.06V15.25H22.5032V25H20.9042V24.22C20.7656 24.4193 20.5879 24.5883 20.3712 24.727C20.1546 24.857 19.9162 24.9567 19.6562 25.026C19.4049 25.0953 19.1449 25.13 18.8762 25.13ZM19.3182 23.791C19.6216 23.791 19.8902 23.713 20.1242 23.557C20.3669 23.401 20.5576 23.1973 20.6962 22.946C20.8349 22.6947 20.9042 22.426 20.9042 22.14C20.9042 21.8453 20.8349 21.5767 20.6962 21.334C20.5576 21.0827 20.3669 20.879 20.1242 20.723C19.8902 20.567 19.6216 20.489 19.3182 20.489C19.0149 20.489 18.7462 20.567 18.5122 20.723C18.2782 20.879 18.0919 21.0827 17.9532 21.334C17.8146 21.5767 17.7452 21.8453 17.7452 22.14C17.7452 22.426 17.8146 22.6947 17.9532 22.946C18.0919 23.1973 18.2782 23.401 18.5122 23.557C18.7462 23.713 19.0149 23.791 19.3182 23.791ZM25.7231 25L23.4611 19.267H25.0991L26.5551 23.414L28.0111 19.267H29.6621L27.4001 25H25.7231Z" fill="#4409B9"/>
</svg>
